<?xml version="1.0" ?><svg id="Layer_1" style="enable-background:new 0 0 256 256;" version="1.1" viewBox="0 0 256 256" xml:space="preserve" xmlns="http://www.w3.org/2000/svg" xmlns:xlink="http://www.w3.org/1999/xlink"><g><path d="M244.1,106.7c-3.4-4.1-8.4-6.4-13.7-6.4h-70.9l13-70.9c0.9-5-0.3-10.1-3.4-14.1c-3-3.9-7.5-6.3-12.3-6.6   c-0.5,0-0.9,0-1.3,0c-2.3,0-4.6,0.3-6.9,0.7c-4.2,0.8-8.2,2.2-12,4.3c-0.1,0.1-0.2,0.1-0.3,0.2c-8.4,4.7-14.8,12.3-17.9,21.4   l-23.4,65H24.3c-9.2,0-16.7,7.5-16.7,16.7v101.5c0.2,9,7.7,16.3,16.7,16.3h43.8c9.3,8.1,21.1,12.5,33.3,12.5c0.1,0,0.2,0,0.3,0   h110.6c9.2,0,16.8-7.4,17-16.6l18.9-109.4C249,116.1,247.5,110.8,244.1,106.7z M62.7,225.3H24.3c-3.9,0-7.1-3.1-7.1-6.9V117   c0-3.9,3.2-7.1,7.1-7.1h38.4V225.3z M238.7,119.7l-18.9,109.8c0,0.3-0.1,0.5-0.1,0.8c0,4.1-3.4,7.5-7.5,7.5H101.6   c-0.1,0-0.1,0-0.2,0c-10,0-19.7-3.7-27.3-10.3l-0.3-0.4c-0.4-0.5-1-1-1.6-1.3v-116h26.1c2,0,3.8-1.3,4.5-3.1l24.6-68.2   c2.4-7,7.3-12.8,13.8-16.4c0.1-0.1,0.2-0.1,0.3-0.2c2.8-1.5,5.7-2.6,8.8-3.2c1.7-0.3,3.5-0.5,5.2-0.5c0.1,0,0.3,0,0.5,0   c2.1,0.2,4.1,1.2,5.4,2.9c1.4,1.8,2,4.2,1.6,6.5l-14,76.6c-0.3,1.4,0.1,2.8,1,3.9c0.9,1.1,2.2,1.7,3.7,1.7h76.6   c2.5,0,4.9,1.1,6.5,3C238.4,114.8,239.1,117.3,238.7,119.7z"/><path d="M29.9,143.8c1.2,0,2.4-0.5,3.3-1.4L52,124c1.9-1.8,1.9-4.9,0.1-6.7c-1.8-1.9-4.9-1.9-6.7-0.1l-18.8,18.4   c-1.9,1.8-1.9,4.9-0.1,6.7C27.4,143.4,28.7,143.8,29.9,143.8z"/><path d="M29.9,185c1.2,0,2.4-0.5,3.3-1.4l20.1-19.7c1.9-1.8,1.9-4.8,0.1-6.7c-1.8-1.9-4.9-1.9-6.7-0.1l-20.1,19.7   c-1.9,1.8-1.9,4.8-0.1,6.7C27.4,184.5,28.7,185,29.9,185z"/><path d="M46.7,198.2l-13.2,12.9c-1.9,1.8-1.9,4.9-0.1,6.7c0.9,1,2.2,1.4,3.4,1.4c1.2,0,2.4-0.5,3.3-1.4L53.3,205   c1.9-1.8,1.9-4.9,0.1-6.7C51.6,196.4,48.5,196.4,46.7,198.2z"/></g></svg>